<svg id="Isolation_Mode" data-name="Isolation Mode" xmlns="http://www.w3.org/2000/svg" viewBox="0 0 285.52 160.77"><defs><style>.cls-1{fill:#394d54;}.cls-1,.cls-6,.cls-7,.cls-8{fill-rule:evenodd;}.cls-2{fill:#00a9d9;}.cls-3{fill:#24b7ea;}.cls-4{fill:#008ab7;}.cls-5{fill:#039ac5;}.cls-6{fill:#00abd2;}.cls-7{fill:#20c1ee;}.cls-10,.cls-8{fill:#d3ecf0;}.cls-9{fill:#bedadf;}</style></defs><title>vector_docker-whale</title><path id="outline" class="cls-1" d="M165.1,50.77H190.7v26h12.95a56.52,56.52,0,0,0,17.78-3,45.78,45.78,0,0,0,8.65-3.87,31.68,31.68,0,0,1-6-16.41c-0.74-7.92.87-18.23,6.28-24.43L233,26l3.21,2.56c8.07,6.43,14.86,15.42,16.06,25.66C262,51.35,273.44,52,282,56.92l3.51,2-1.85,3.58c-7.25,14-22.39,18.37-37.2,17.6-22.16,54.74-70.41,80.66-128.91,80.66-30.23,0-58-11.21-73.74-37.79l-0.26-.44-2.3-4.64a73.08,73.08,0,0,1-5.91-37.34l0.36-3.84H57.6v-26h25.6V25.39h51.19V0H165.1V50.77Z"/><g id="body_colors" data-name="body colors"><path class="cls-2" d="M248,60.37c1.72-13.23-8.27-23.62-14.46-28.55-7.13,8.18-8.24,29.61,2.95,38.64-6.24,5.5-19.4,10.49-32.88,10.49H39.59c-1.31,13.95,1.16,26.8,6.8,37.8l1.87,3.38a61.51,61.51,0,0,0,3.87,5.76h0q10.12,0.64,18.65.46h0c11.18-.25,20.3-1.55,27.22-3.93a2,2,0,0,1,2.5,1.21,2,2,0,0,1-1.21,2.49c-0.92.32-1.88,0.61-2.87,0.89h0a86.08,86.08,0,0,1-18.81,3c0.44,0-.46.07-0.47,0.07l-0.84.06c-3,.17-6.16.2-9.43,0.2-3.58,0-7.1-.07-11-0.27l-0.1.06c13.67,15.24,35,24.37,61.83,24.37,56.7,0,104.79-24.92,126.08-80.88,15.11,1.54,29.63-2.28,36.24-15.07C269.35,54.57,255.82,56.49,248,60.37Z"/><path class="cls-3" d="M248,60.37c1.72-13.23-8.27-23.62-14.46-28.55-7.13,8.18-8.24,29.61,2.95,38.64-6.24,5.5-19.4,10.49-32.88,10.49H49.31c-0.67,21.36,7.32,37.58,21.47,47.39h0c11.18-.25,20.3-1.55,27.22-3.93a2,2,0,0,1,2.5,1.21,2,2,0,0,1-1.21,2.49c-0.92.32-1.88,0.61-2.87,0.89h0a90.65,90.65,0,0,1-19.31,3.17L76.92,132c19.29,9.81,47.27,9.78,79.35-2.44,36-13.7,69.43-39.81,92.79-69.67C248.71,60,248.36,60.2,248,60.37Z"/><path class="cls-4" d="M39.9,97.9a64.54,64.54,0,0,0,6.49,20.85l1.87,3.38a61.51,61.51,0,0,0,3.87,5.76q10.12,0.64,18.65.46c11.18-.25,20.3-1.55,27.22-3.93a2,2,0,0,1,2.5,1.21,2,2,0,0,1-1.21,2.49c-0.92.32-1.88,0.61-2.87,0.89h0a90.7,90.7,0,0,1-19.28,3.11l-1,0c-3,.17-6.13.27-9.4,0.27-3.58,0-7.24-.07-11.18-0.27,13.67,15.24,35.17,24.41,62,24.41,48.54,0,90.77-18.27,115.28-58.64H39.9Z"/><path class="cls-5" d="M50.79,97.9c2.9,13.12,9.88,23.42,20,30.44,11.18-.25,20.3-1.55,27.22-3.93a2,2,0,0,1,2.5,1.21,2,2,0,0,1-1.21,2.49c-0.92.32-1.88,0.61-2.87,0.89h0A92.05,92.05,0,0,1,77,132.1c19.29,9.82,47.19,9.67,79.27-2.54A210,210,0,0,0,211.11,97.9H50.79Z"/></g><g id="Containers"><path class="cls-6" d="M80.44,56.83H82.2V75.17H80.44V56.83Zm-3.36,0H78.9V75.17H77.08V56.83Zm-3.36,0h1.82V75.17H73.72V56.83Zm-3.36,0h1.82V75.17H70.36V56.83Zm-3.36,0h1.82V75.17H67V56.83Zm-3.29,0h1.75V75.17H63.71V56.83ZM61.86,55H84V77H61.86V55Z"/><path class="cls-6" d="M106,31.45h1.75V49.78H106V31.45Zm-3.36,0h1.82V49.78h-1.82V31.45Zm-3.36,0h1.82V49.78H99.32V31.45Zm-3.36,0h1.82V49.78H96V31.45Zm-3.36,0h1.82V49.78H92.6V31.45Zm-3.29,0h1.75V49.78H89.31V31.45Zm-1.85-1.83h22.19v22H87.46v-22Z"/><path class="cls-7" d="M106,56.83h1.75V75.17H106V56.83Zm-3.36,0h1.82V75.17h-1.82V56.83Zm-3.36,0h1.82V75.17H99.32V56.83Zm-3.36,0h1.82V75.17H96V56.83Zm-3.36,0h1.82V75.17H92.6V56.83Zm-3.29,0h1.75V75.17H89.31V56.83ZM87.46,55h22.19V77H87.46V55Z"/><path class="cls-6" d="M131.64,56.83h1.75V75.17h-1.75V56.83Zm-3.36,0h1.82V75.17h-1.82V56.83Zm-3.36,0h1.82V75.17h-1.82V56.83Zm-3.36,0h1.82V75.17h-1.82V56.83Zm-3.36,0H120V75.17h-1.82V56.83Zm-3.29,0h1.75V75.17H114.9V56.83ZM113.06,55h22.19V77H113.06V55Z"/><path class="cls-7" d="M131.64,31.45h1.75V49.78h-1.75V31.45Zm-3.36,0h1.82V49.78h-1.82V31.45Zm-3.36,0h1.82V49.78h-1.82V31.45Zm-3.36,0h1.82V49.78h-1.82V31.45Zm-3.36,0H120V49.78h-1.82V31.45Zm-3.29,0h1.75V49.78H114.9V31.45Zm-1.85-1.83h22.19v22H113.06v-22Z"/><path class="cls-7" d="M157.24,56.83H159V75.17h-1.75V56.83Zm-3.36,0h1.82V75.17h-1.82V56.83Zm-3.36,0h1.82V75.17h-1.82V56.83Zm-3.36,0H149V75.17h-1.82V56.83Zm-3.36,0h1.82V75.17h-1.82V56.83Zm-3.29,0h1.75V75.17H140.5V56.83ZM138.65,55h22.18V77H138.65V55Z"/><path class="cls-6" d="M157.24,31.45H159V49.78h-1.75V31.45Zm-3.36,0h1.82V49.78h-1.82V31.45Zm-3.36,0h1.82V49.78h-1.82V31.45Zm-3.36,0H149V49.78h-1.82V31.45Zm-3.36,0h1.82V49.78h-1.82V31.45Zm-3.29,0h1.75V49.78H140.5V31.45Zm-1.85-1.83h22.18v22H138.65v-22Z"/><path class="cls-7" d="M157.24,6.06H159V24.4h-1.75V6.06Zm-3.36,0h1.82V24.4h-1.82V6.06Zm-3.36,0h1.82V24.4h-1.82V6.06Zm-3.36,0H149V24.4h-1.82V6.06Zm-3.36,0h1.82V24.4h-1.82V6.06Zm-3.29,0h1.75V24.4H140.5V6.06Zm-1.85-1.83h22.18v22H138.65v-22Z"/><path class="cls-6" d="M182.83,56.83h1.75V75.17h-1.75V56.83Zm-3.36,0h1.82V75.17h-1.82V56.83Zm-3.36,0h1.82V75.17h-1.82V56.83Zm-3.36,0h1.82V75.17h-1.82V56.83Zm-3.36,0h1.82V75.17h-1.82V56.83Zm-3.29,0h1.75V75.17H166.1V56.83ZM164.25,55h22.18V77H164.25V55Z"/></g><path class="cls-8" d="M108.25,112.67a6.07,6.07,0,1,1-6.12,6.07,6.09,6.09,0,0,1,6.12-6.07"/><path class="cls-1" d="M108.25,114.39a4.43,4.43,0,0,1,1.58.3,1.78,1.78,0,1,0,2.46,2.39,4.29,4.29,0,0,1,.33,1.67,4.38,4.38,0,1,1-4.38-4.35"/><path class="cls-1" d="M0,100.09H284.7c-6.2-1.56-19.62-3.67-17.4-11.72C256,101.31,228.84,97.45,222,91.07c-7.64,11-52.11,6.81-55.21-1.75-9.58,11.15-39.26,11.15-48.84,0-3.1,8.56-47.57,12.74-55.21,1.75-6.86,6.38-34,10.24-45.32-2.7C19.61,96.43,6.2,98.53,0,100.09"/><path class="cls-9" d="M124.52,156.41C109.37,149.28,101,139.58,96.42,129a94.61,94.61,0,0,1-20.26,3q-4.45.25-9.35,0.25-5.66,0-11.91-.33c13.9,13.78,31,24.38,62.66,24.58Q121.06,156.54,124.52,156.41Z"/><path class="cls-10" d="M102,138.76A52.53,52.53,0,0,1,96.42,129a94.71,94.71,0,0,1-20.26,3C81.56,135,89.28,137.65,102,138.76Z"/></svg>